<?xml version="1.0" encoding="UTF-8" standalone="no"?>
<svg
  version="1.1"
  x="0px"
  y="0px"
  viewBox="0 0 66 66"
  xml:space="preserve"
  id="svg1029"
  sodipodi:docname="minver.svg"
  width="66"
  height="66"
  inkscape:version="1.1 (c68e22c387, 2021-05-23)"
  xmlns:inkscape="http://www.inkscape.org/namespaces/inkscape"
  xmlns:sodipodi="http://sodipodi.sourceforge.net/DTD/sodipodi-0.dtd"
  xmlns="http://www.w3.org/2000/svg"
  xmlns:svg="http://www.w3.org/2000/svg">
  <defs id="defs1033" />
  <sodipodi:namedview
    id="namedview1031"
    pagecolor="#505050"
    bordercolor="#eeeeee"
    borderopacity="1"
    inkscape:pageshadow="0"
    inkscape:pageopacity="0"
    inkscape:pagecheckerboard="0"
    showgrid="false"
    height="81.5px"
    inkscape:zoom="9.8424242"
    inkscape:cx="0.30480296"
    inkscape:cy="41.3008"
    inkscape:window-width="1920"
    inkscape:window-height="1001"
    inkscape:window-x="-9"
    inkscape:window-y="-9"
    inkscape:window-maximized="1"
    inkscape:current-layer="svg1029" />
  <g id="g1023">
    <path
      d="m 44.3,14.5 c -4,0 -7.2,3.3 -7.2,7.2 0,3.9 3.3,7.2 7.2,7.2 3.9,0 7.2,-3.3 7.2,-7.2 0,-3.9 -3.2,-7.2 -7.2,-7.2 z m 0,11.5 c -2.3,0 -4.2,-1.9 -4.2,-4.2 0,-2.3 1.9,-4.2 4.2,-4.2 2.3,0 4.2,1.9 4.2,4.2 0,2.3 -1.9,4.2 -4.2,4.2 z"
      id="path1019" />
    <path
      d="M 53,6.2 37.5,6.7 C 35,6.9 32.6,8 30.9,9.7 L 8.5,32.1 c -3.1,3.1 -3.1,8.1 0,11.2 l 14.2,14.2 c 1.5,1.5 3.6,2.3 5.6,2.3 2,0 4,-0.8 5.6,-2.3 L 56.2,35.2 c 1.8,-1.8 2.9,-4.1 3,-6.7 L 59.8,13 C 59.9,11.2 59.2,9.4 57.9,8.1 56.6,6.9 54.8,6.2 53,6.2 Z m 3.3,22.1 c -0.1,1.8 -0.9,3.5 -2.2,4.7 L 31.8,55.3 c -1.9,1.9 -5,1.9 -6.9,0 L 10.7,41.1 c -1.9,-1.9 -1.9,-5 0,-6.9 L 33,11.9 c 1.3,-1.3 2.9,-2 4.7,-2.2 L 53.1,9.2 c 1,0 2,0.3 2.7,1.1 0.7,0.7 1.1,1.7 1.1,2.7 z"
      id="path1021" />
  </g>
  <text
    x="0"
    y="86"
    fill="#000000"
    font-size="5px"
    font-weight="bold"
    font-family="'Helvetica Neue', Helvetica, Arial-Unicode, Arial, Sans-serif"
    id="text1027">from the Noun Project</text>
</svg>
